<svg xmlns="http://www.w3.org/2000/svg" width="384" height="385" viewBox="0 0 384 385">
  <g id="Group_737" data-name="Group 737" transform="translate(4392 -548)">
    <g id="Group_734" data-name="Group 734">
      <g id="Rectangle_862" data-name="Rectangle 862" transform="translate(-4392 548)" fill="#fff" stroke="#707070" stroke-width="1" opacity="0">
        <rect width="384" height="385" stroke="none"/>
        <rect x="0.5" y="0.5" width="383" height="384" fill="none"/>
      </g>
      <g id="Layer_1" data-name="Layer 1" transform="translate(-4327 603)">
        <g id="Group_713" data-name="Group 713">
          <g id="Group_711" data-name="Group 711">
            <path id="Path_4310" data-name="Path 4310" d="M4257.136,3102.521a127.3,127.3,0,0,1-177.146,117.11c-1.012-.419-2.022-.888-3.009-1.332a11.9,11.9,0,0,0-5.229-1.208,11.538,11.538,0,0,0-8.065,3.231l-1.382,1.554-1.406,1.628-8.855,10.087a1.729,1.729,0,0,1-.222.223,52.432,52.432,0,0,1-22.494,14.971,9.594,9.594,0,0,1-1.183.419,4.725,4.725,0,0,1-1.109.321,5.486,5.486,0,0,1-1.086.3,17.811,17.811,0,0,1-3.651.369,18.052,18.052,0,0,1-16.229-10.112,16.7,16.7,0,0,1-1.53-4.662,52.628,52.628,0,0,1-1.923-14.159V3102.521a127.248,127.248,0,0,1,230.273-74.685,114.682,114.682,0,0,1,6.684,10.186A126.352,126.352,0,0,1,4257.136,3102.521Z" transform="translate(-4002.617 -2975.273)" fill="none" stroke="#2F2F2F" stroke-miterlimit="10" stroke-width="6"/>
          </g>
          <g id="Group_712" data-name="Group 712" transform="translate(57.225 117.726)">
            <ellipse id="Ellipse_320" data-name="Ellipse 320" cx="9.772" cy="9.772" rx="9.772" ry="9.772" transform="translate(120.526)" fill="#33b2c3" stroke="#33b2c3" stroke-miterlimit="10" stroke-width="6"/>
            <ellipse id="Ellipse_321" data-name="Ellipse 321" cx="9.772" cy="9.772" rx="9.772" ry="9.772" transform="translate(60.035)" fill="#33b2c3" stroke="#33b2c3" stroke-miterlimit="10" stroke-width="6"/>
            <ellipse id="Ellipse_322" data-name="Ellipse 322" cx="9.772" cy="9.772" rx="9.772" ry="9.772" fill="#33b2c3" stroke="#33b2c3" stroke-miterlimit="10" stroke-width="6"/>
          </g>
        </g>
      </g>
    </g>
  </g>
</svg>
