<svg xmlns="http://www.w3.org/2000/svg" width="384" height="385" viewBox="0 0 384 385">
  <g id="Group_740" data-name="Group 740" transform="translate(2544 -548)">
    <g id="Group_735" data-name="Group 735">
      <g id="Rectangle_861" data-name="Rectangle 861" transform="translate(-2544 548)" fill="#fff" stroke="#707070" stroke-width="1" opacity="0">
        <rect width="384" height="385" stroke="none"/>
        <rect x="0.5" y="0.5" width="383" height="384" fill="none"/>
      </g>
      <g id="Group_719" data-name="Group 719" transform="translate(-2488 605)">
        <g id="Group_717" data-name="Group 717" transform="translate(0)">
          <path id="Path_4311" data-name="Path 4311" d="M4980.764,3119.462a6.532,6.532,0,0,1-4.858,6.216l-18.252,4.39a7.439,7.439,0,0,0-5.354,5.5,107.725,107.725,0,0,1-10.926,29.105,7.142,7.142,0,0,0,.395,7.67l10.656,15.515a6.412,6.412,0,0,1-.419,7.573L4941.62,3207.1a6.587,6.587,0,0,1-7.869,1.431l-16.3-8.756a7.233,7.233,0,0,0-7.721.518,105.157,105.157,0,0,1-15.095,9.249c-2.688,1.357-5.476,2.615-8.287,3.749l-2.664,1.036c-2.146.814-4.316,1.555-6.512,2.245-3.281.986-6.635,1.826-9.988,2.515a7.183,7.183,0,0,0-5.6,5.254l-4.908,18.2a6.417,6.417,0,0,1-6.042,4.563l-15.612-.37a6.558,6.558,0,0,1-6.193-5.056l-3.871-18.1a7.3,7.3,0,0,0-5.4-5.549c-2.565-.616-5.1-1.307-7.621-2.1v-.1a111.553,111.553,0,0,1-15.514-6.266,108.293,108.293,0,0,1-17.167-10.68,7.331,7.331,0,0,0-7.621-.739l-16.921,8.656a6.462,6.462,0,0,1-7.77-1.6l-10.038-12.086a6.376,6.376,0,0,1-.3-7.868l10.952-15a7.105,7.105,0,0,0,.641-7.671,109.125,109.125,0,0,1-9.989-27.107,7.194,7.194,0,0,0-5.353-5.426l-18.276-4.564a6.485,6.485,0,0,1-4.858-6.264v-15.687a6.456,6.456,0,0,1,4.858-6.191l18.006-4.317a7.3,7.3,0,0,0,5.426-5.5,109.6,109.6,0,0,1,11-29.1,7.14,7.14,0,0,0-.371-7.671l-10.53-15.342a6.35,6.35,0,0,1,.467-7.893l10.41-11.74a6.4,6.4,0,0,1,7.794-1.357l16.647,8.732a7.273,7.273,0,0,0,7.673-.74,107.114,107.114,0,0,1,39.883-17.858,7.21,7.21,0,0,0,5.475-5.376l4.466-18.252a6.491,6.491,0,0,1,6.264-4.859H4853a6.367,6.367,0,0,1,6.216,4.859l4.465,18.2a7.353,7.353,0,0,0,5.475,5.4,107.011,107.011,0,0,1,41.98,19.411,7.363,7.363,0,0,0,7.672.667l16.846-8.386a6.314,6.314,0,0,1,7.744,1.529l10.137,11.988a6.378,6.378,0,0,1,.322,7.868l-11.026,15.193a7.415,7.415,0,0,0-.544,7.672A109.78,109.78,0,0,1,4952,3087.52a7.221,7.221,0,0,0,5.376,5.426l18.228,4.539a6.366,6.366,0,0,1,4.859,6.216Z" transform="translate(-4709.72 -2976.059)" fill="none" stroke="#2F2F2F" stroke-miterlimit="10" stroke-width="6"/>
        </g>
        <g id="Group_718" data-name="Group 718" transform="translate(65.486 125.75)">
          <ellipse id="Ellipse_326" data-name="Ellipse 326" cx="9.772" cy="9.772" rx="9.772" ry="9.772" transform="translate(120.525)" fill="#33b2c3" stroke="#33b2c3" stroke-miterlimit="10" stroke-width="6"/>
          <ellipse id="Ellipse_327" data-name="Ellipse 327" cx="9.772" cy="9.772" rx="9.772" ry="9.772" transform="translate(60.036)" fill="#33b2c3" stroke="#33b2c3" stroke-miterlimit="10" stroke-width="6"/>
          <ellipse id="Ellipse_328" data-name="Ellipse 328" cx="9.772" cy="9.772" rx="9.772" ry="9.772" fill="#33b2c3" stroke="#33b2c3" stroke-miterlimit="10" stroke-width="6"/>
        </g>
      </g>
    </g>
  </g>
</svg>
