<svg class="my-5" xmlns="http://www.w3.org/2000/svg" width="183.241" height="183.235" viewBox="0 0 183.241 183.235">
                    <g id="Group_168" data-name="Group 168" transform="translate(-3422.078 -3171.581)">
                        <g id="Group_166" data-name="Group 166" transform="translate(3422.078 3171.581)">
                            <circle id="Ellipse_235" data-name="Ellipse 235" cx="5.292" cy="5.292" r="5.292" transform="translate(43.295 11.051)" fill="#fff"></circle>
                            <path id="Path_2843" data-name="Path 2843" d="M3605.319,3263.2a91.621,91.621,0,1,1-178.936-27.833c.13-.409.26-.819.4-1.221a5.321,5.321,0,0,1,10.024,3.4c-.109.314-.212.635-.308.955,0,.007-.007.014-.007.021a80.985,80.985,0,1,0,56.021-53.55c-.171.034-.334.082-.5.13-.069.021-.136.034-.2.048a5.3,5.3,0,0,1-2.579-10.262c.156-.041.313-.089.47-.13.007-.007.014-.014.021-.007a91.706,91.706,0,0,1,115.595,88.452Z" transform="translate(-3422.078 -3171.581)" fill="#33b2c3"></path>
                            <circle id="Ellipse_236" data-name="Ellipse 236" cx="5.292" cy="5.292" r="5.292" transform="translate(26.342 23.719)" fill="#fff"></circle>
                            <circle id="Ellipse_237" data-name="Ellipse 237" cx="5.292" cy="5.292" r="5.292" transform="translate(13.03 40.007)" fill="#fff"></circle>
                        </g>
                        <g id="Group_167" data-name="Group 167" transform="translate(3468.647 3224.095)">
                            <path id="Path_2844" data-name="Path 2844" d="M3538.093,3257.058l-5.26,5.1c0-.709,0-1.215,0-1.72-.012-1.335-.045-2.668-.025-4a1.375,1.375,0,0,1,.305-.888c2.381-2.335,4.791-4.641,7.246-7.006a2.842,2.842,0,0,1,.322.27c2.2,2.166,4.4,4.324,6.575,6.516a1.723,1.723,0,0,1,.447,1.07c.044,1.82.02,3.642.02,5.7l-4.924-5.094-.239.132q-.076,2.139-.152,4.277a112.769,112.769,0,0,1-3.028,23.174c-1.969,7.966-4.95,15.49-9.847,22.152a41.927,41.927,0,0,1-27.331,16.96,92.145,92.145,0,0,1-9.693.877,2.077,2.077,0,0,1-2.153-1.823,2.163,2.163,0,0,1,1.481-2.413,4.688,4.688,0,0,1,1.234-.117,43.386,43.386,0,0,0,20.783-5.243c7.168-4.015,12.3-9.942,16.036-17.167a70.905,70.905,0,0,0,6.647-21.2,121.061,121.061,0,0,0,1.557-18.672C3538.095,3257.667,3538.093,3257.391,3538.093,3257.058Z" transform="translate(-3490.328 -3248.543)" fill="#fff"></path>
                            <path id="Path_2845" data-name="Path 2845" d="M3595.754,3289.719a13.756,13.756,0,1,1,13.814-13.671A13.777,13.777,0,0,1,3595.754,3289.719Zm-9.275-13.864a9.347,9.347,0,1,0,9.428-9.227A9.359,9.359,0,0,0,3586.479,3275.855Z" transform="translate(-3519.466 -3252.884)" fill="#fff"></path>
                            <path id="Path_2846" data-name="Path 2846" d="M3578.729,3336.8a3.771,3.771,0,0,1,.792.474q4.586,4.556,9.143,9.141a2.245,2.245,0,0,1-1,3.867,2.345,2.345,0,0,1-2.315-.815q-4.471-4.493-8.958-8.971c-.216-.216-.394-.469-.642-.769-.3.289-.522.489-.731.7q-4.513,4.51-9.021,9.027a2.366,2.366,0,0,1-2.309.836,2.135,2.135,0,0,1-1.676-1.575,2.234,2.234,0,0,1,.634-2.291q3.4-3.384,6.785-6.781c1-1,2.013-1.993,3.194-3.161a5.728,5.728,0,0,1-.805-.559c-3.016-3-6.014-6.018-9.033-9.014a2.309,2.309,0,0,1-.7-2.636,2.231,2.231,0,0,1,3.817-.62q4.526,4.5,9.025,9.022c.215.216.4.457.672.762.279-.265.494-.463.7-.669q4.573-4.57,9.143-9.142a2.21,2.21,0,0,1,2.5-.634,2.14,2.14,0,0,1,1.447,1.872,2.427,2.427,0,0,1-.872,2.064c-3,2.98-5.978,5.976-8.973,8.957a5.354,5.354,0,0,1-.753.532Z" transform="translate(-3513.071 -3272.142)" fill="#fff"></path>
                            <path id="Path_2847" data-name="Path 2847" d="M3514.4,3293.708c.24.252.441.473.654.685q4.539,4.542,9.078,9.085a2.234,2.234,0,0,1,.474,2.877,2.145,2.145,0,0,1-2.512,1,3.555,3.555,0,0,1-1.294-.854q-4.507-4.458-8.97-8.958a8.753,8.753,0,0,1-.565-.7c-.32.3-.54.506-.75.716q-4.541,4.54-9.083,9.08a2.259,2.259,0,1,1-3.2-3.163q4.533-4.549,9.079-9.085c.211-.211.412-.433.646-.681-.24-.253-.443-.475-.656-.688q-4.511-4.513-9.026-9.02a2.324,2.324,0,0,1-.779-2.326,2.252,2.252,0,0,1,3.89-.935c2.374,2.344,4.725,4.711,7.079,7.074.882.885,1.744,1.79,2.655,2.726.281-.263.5-.459.708-.667q4.573-4.568,9.139-9.144a2.264,2.264,0,0,1,2.437-.638,2.129,2.129,0,0,1,1.489,1.752,2.344,2.344,0,0,1-.817,2.161q-4.522,4.5-9.026,9.02C3514.836,3293.234,3514.635,3293.457,3514.4,3293.708Z" transform="translate(-3492.581 -3258.524)" fill="#fff"></path>
                        </g>
                    </g>
                </svg>