<svg class="my-5" xmlns="http://www.w3.org/2000/svg" width="183.242" height="183.235" viewBox="0 0 183.242 183.235">
                    <g id="Group_173" data-name="Group 173" transform="translate(-1891.079 -3174.474)">
                        <g id="Group_171" data-name="Group 171" transform="translate(1891.079 3174.474)">
                            <circle id="Ellipse_241" data-name="Ellipse 241" cx="5.292" cy="5.292" r="5.292" transform="translate(43.296 11.052)" fill="#fff"></circle>
                            <path id="Path_2852" data-name="Path 2852" d="M2074.321,3266.092a91.621,91.621,0,1,1-178.937-27.833c.13-.409.259-.819.4-1.221a5.321,5.321,0,0,1,10.023,3.4c-.109.314-.211.635-.307.955,0,.007-.007.014-.007.021a80.983,80.983,0,1,0,56.02-53.55c-.171.034-.334.082-.5.13-.068.021-.136.034-.2.048a5.3,5.3,0,0,1-2.579-10.262c.157-.041.314-.089.471-.129.007-.008.014-.014.021-.008a91.706,91.706,0,0,1,115.6,88.452Z" transform="translate(-1891.079 -3174.474)" fill="#33b2c3"></path>
                            <circle id="Ellipse_242" data-name="Ellipse 242" cx="5.292" cy="5.292" r="5.292" transform="translate(26.342 23.719)" fill="#fff"></circle>
                            <circle id="Ellipse_243" data-name="Ellipse 243" cx="5.292" cy="5.292" r="5.292" transform="translate(13.031 40.008)" fill="#fff"></circle>
                        </g>
                        <g id="Group_172" data-name="Group 172" transform="translate(1940.254 3217.057)">
                            <path id="Path_2853" data-name="Path 2853" d="M1994.037,3292.441c-1.687-2.524-1.633-4.311.2-6.782-6.909-6.358-10.263-14.217-9.438-23.625a26.85,26.85,0,0,1,9.843-18.683,27.769,27.769,0,0,1,35.977,42.306c1.8,2.181,1.927,4.435.319,6.628a21.663,21.663,0,0,1,1.011,2.718,4.161,4.161,0,0,1-.744,3.39.826.826,0,0,0-.04,1.13,4.771,4.771,0,0,1-1.807,7.049.953.953,0,0,0-.578,1.007c.015,3.485-.009,6.971.02,10.456a2.712,2.712,0,0,1-.864,2.085q-7.013,6.973-13.993,13.978c-1.142,1.141-1.886,1.138-3.032-.007q-6.964-6.96-13.934-13.915a2.885,2.885,0,0,1-.916-2.239c.035-3.456.006-6.912.022-10.368a.954.954,0,0,0-.589-1,4.836,4.836,0,0,1-1.827-7.074,1.034,1.034,0,0,0,.1-.876C1992.443,3296.326,1992.486,3294.769,1994.037,3292.441Zm11.762-8.159a2.923,2.923,0,0,0,.09-.453c0-3.254.021-6.507-.016-9.76a1.446,1.446,0,0,0-.525-.908q-2.445-2.1-4.944-4.137a11.3,11.3,0,0,1-4.291-8.161c-.487-6.367,5.867-11.368,11.775-8.416a1.244,1.244,0,0,0,.942,0,8.355,8.355,0,0,1,7.163-.019,1.392,1.392,0,0,0,1.022,0,8.078,8.078,0,0,1,11.428,5.462c1.055,4.4-.482,8.052-3.822,10.981-1.637,1.436-3.331,2.808-5.02,4.182a1.521,1.521,0,0,0-.644,1.319c.03,2.992.012,5.983.016,8.976,0,.28.027.562.047.934h.929c2.12,0,4.241.03,6.36-.022a2.414,2.414,0,0,0,1.4-.5c7.33-6.218,10.406-14.086,8.779-23.592a24.461,24.461,0,0,0-48.475,2.975c-.522,8.473,2.767,15.381,9.3,20.763a1.373,1.373,0,0,0,.761.355C2000.631,3284.292,2003.182,3284.282,2005.8,3284.282Zm9.919-.05c0-3.743.017-7.373-.012-11a2.277,2.277,0,0,1,.918-1.943c2.006-1.63,3.979-3.3,5.962-4.959a8.025,8.025,0,0,0,2.664-4.194c.77-2.9-.286-5.6-2.67-6.787a4.194,4.194,0,0,0-3.4-.233c.184.339.336.614.484.89a8.077,8.077,0,0,1-1.956,9.951,1.669,1.669,0,0,1-2.359.012,7.942,7.942,0,0,1-2.583-3.948c-.092-.315-.183-.63-.344-1.187-.109.438-.154.622-.2.806a8.189,8.189,0,0,1-2.595,4.241,1.681,1.681,0,0,1-2.554-.008,7.678,7.678,0,0,1-2.663-7.345,25.292,25.292,0,0,1,1.108-3.44c-2.383-.879-5.344.859-5.964,3.734a7.374,7.374,0,0,0,2.635,7.41c1.936,1.712,3.938,3.351,5.954,4.968a2.567,2.567,0,0,1,1.027,2.248c-.042,3.282-.017,6.565-.014,9.848,0,.307.026.613.041.941Zm-16.315,31.26c.7-.464,1.3-.858,1.9-1.254,1.13-.746,1.525-.744,2.68.022.991.659,1.994,1.3,2.965,1.987a.84.84,0,0,0,1.144.019c1.06-.762,2.172-1.45,3.249-2.188a1.76,1.76,0,0,1,2.178,0c1.1.752,2.232,1.465,3.325,2.231a.737.737,0,0,0,1-.008c1.02-.717,2.069-1.395,3.109-2.084a1.844,1.844,0,0,1,2.61.02c.613.4,1.23.8,1.88,1.223v-8.25H1999.4Zm.891,3.35c2.086,2.085,4.086,4.1,6.114,6.084a1.26,1.26,0,0,0,.8.191c3.484.012,6.969.021,10.454-.011a1.666,1.666,0,0,0,1.047-.428c1.832-1.781,3.628-3.6,5.431-5.41a4.194,4.194,0,0,0,.355-.477l-2.254-1.5c-1.269.843-2.535,1.662-3.775,2.516a1.793,1.793,0,0,1-2.251.009c-1.073-.744-2.183-1.434-3.249-2.188a.788.788,0,0,0-1.071,0c-1.043.735-2.138,1.4-3.178,2.138a1.866,1.866,0,0,1-2.4-.009c-1.21-.847-2.455-1.644-3.7-2.469Zm12.09-28.043h14.11c1.512,0,2.3-.566,2.29-1.64s-.82-1.63-2.322-1.631h-26.651c-.668,0-1.336-.01-2,.005a1.637,1.637,0,1,0,.119,3.262Q2005.156,3290.809,2012.385,3290.8Zm.014,6.56q7.055,0,14.11,0a4.516,4.516,0,0,0,1.035-.087,1.62,1.62,0,0,0,1.235-1.676,1.638,1.638,0,0,0-1.459-1.492,5.51,5.51,0,0,0-.609-.013h-28.568a5.172,5.172,0,0,0-.609.015,1.639,1.639,0,0,0-1.444,1.506,1.607,1.607,0,0,0,1.168,1.641,4.437,4.437,0,0,0,1.12.1Q2005.388,3297.364,2012.4,3297.359Zm.043,6.514q7.229,0,14.458,0a1.67,1.67,0,0,0,1.883-1.607,1.711,1.711,0,0,0-1.854-1.659c-.174-.007-.349,0-.523,0q-13.979,0-27.958,0a2.164,2.164,0,0,0-1.025.08,2.919,2.919,0,0,0-1.208,1.1c-.48,1.1.4,2.086,1.768,2.088Q2005.213,3303.88,2012.442,3303.873Zm-.159,26.893,2.435-2.281h-4.7Zm4.254-68.481a4.391,4.391,0,0,0,0-5.024A4.236,4.236,0,0,0,2016.536,3262.284Zm-8.192-5.048c-1.068,1.162-1.053,4.15.049,4.99A4.352,4.352,0,0,0,2008.344,3257.236Zm2.736-2.241,1.354,3.451L2013.8,3255Z" transform="translate(-1969.987 -3236.881)" fill="#fff"></path>
                            <rect id="Rectangle_133" data-name="Rectangle 133" width="9.715" height="3.129" rx="1.564" transform="translate(0 26.208)" fill="#fff"></rect>
                            <rect id="Rectangle_134" data-name="Rectangle 134" width="9.716" height="3.155" rx="1.577" transform="translate(75.178 26.209)" fill="#fff"></rect>
                            <path id="Path_2854" data-name="Path 2854" d="M1981.6,3245.56l-4.313-4.324a1.462,1.462,0,0,1-.012-2.052l.021-.021a1.463,1.463,0,0,1,2.08-.013l4.321,4.317a1.46,1.46,0,0,1-.026,2.091l-.029.027A1.463,1.463,0,0,1,1981.6,3245.56Z" transform="translate(-1967.503 -3237.466)" fill="#fff"></path>
                            <path id="Path_2855" data-name="Path 2855" d="M2070.063,3239.214l.021.021a1.418,1.418,0,0,1-.012,1.99l-4.385,4.4a1.418,1.418,0,0,1-2.037-.028l-.044-.047a1.416,1.416,0,0,1,.032-1.979l4.409-4.374A1.418,1.418,0,0,1,2070.063,3239.214Z" transform="translate(-1994.935 -3237.485)" fill="#fff"></path>
                            <path id="Path_2856" data-name="Path 2856" d="M1977.313,3312.626l-.041-.042a1.5,1.5,0,0,1,.027-2.1l4.3-4.265a1.5,1.5,0,0,1,2.139.031l.021.022a1.5,1.5,0,0,1-.024,2.091l-4.281,4.284A1.5,1.5,0,0,1,1977.313,3312.626Z" transform="translate(-1967.501 -3258.769)" fill="#fff"></path>
                            <path id="Path_2857" data-name="Path 2857" d="M2070.139,3312.59l-.052.052a1.456,1.456,0,0,1-2.083.006l-4.265-4.335a1.457,1.457,0,0,1,.032-2.075l.022-.021a1.456,1.456,0,0,1,2.038.023l4.294,4.3A1.459,1.459,0,0,1,2070.139,3312.59Z" transform="translate(-1994.968 -3258.778)" fill="#fff"></path>
                            <rect id="Rectangle_135" data-name="Rectangle 135" width="3.118" height="3.136" rx="1.559" transform="translate(75.21 78.522)" fill="#fff"></rect>
                            <rect id="Rectangle_136" data-name="Rectangle 136" width="3.165" height="3.133" rx="1.567" transform="translate(19.629 78.506)" fill="#fff"></rect>
                            <rect id="Rectangle_137" data-name="Rectangle 137" width="3.166" height="3.122" rx="1.561" transform="translate(6.557 78.526)" fill="#fff"></rect>
                            <rect id="Rectangle_138" data-name="Rectangle 138" width="3.176" height="3.155" rx="1.577" transform="translate(13.061 78.489)" fill="#fff"></rect>
                            <rect id="Rectangle_139" data-name="Rectangle 139" width="3.16" height="3.151" rx="1.576" transform="translate(62.116 78.496)" fill="#fff"></rect>
                            <rect id="Rectangle_140" data-name="Rectangle 140" width="3.211" height="3.128" rx="1.564" transform="translate(68.624 78.518)" fill="#fff"></rect>
                        </g>
                    </g>
                </svg>