<svg class="my-5" xmlns="http://www.w3.org/2000/svg" width="183.242" height="183.235" viewBox="0 0 183.242 183.235">
                    <g id="Group_170" data-name="Group 170" transform="translate(-2493.045 -3171.581)">
                        <g id="Group_169" data-name="Group 169" transform="translate(2493.045 3171.581)">
                            <circle id="Ellipse_238" data-name="Ellipse 238" cx="5.292" cy="5.292" r="5.292" transform="translate(43.296 11.051)" fill="#fff"></circle>
                            <path id="Path_2848" data-name="Path 2848" d="M2676.287,3263.2a91.621,91.621,0,1,1-178.937-27.833c.13-.409.26-.819.4-1.221a5.321,5.321,0,0,1,10.023,3.4c-.109.314-.212.635-.307.955,0,.007-.007.014-.007.021a80.983,80.983,0,1,0,56.02-53.55c-.171.034-.334.082-.5.13-.068.021-.136.034-.2.048a5.3,5.3,0,0,1-2.579-10.262c.157-.041.314-.089.471-.13.007-.007.014-.014.021-.007a91.706,91.706,0,0,1,115.595,88.452Z" transform="translate(-2493.045 -3171.581)" fill="#33b2c3"></path>
                            <circle id="Ellipse_239" data-name="Ellipse 239" cx="5.292" cy="5.292" r="5.292" transform="translate(26.342 23.719)" fill="#fff"></circle>
                            <circle id="Ellipse_240" data-name="Ellipse 240" cx="5.292" cy="5.292" r="5.292" transform="translate(13.031 40.007)" fill="#fff"></circle>
                        </g>
                        <path id="Path_2849" data-name="Path 2849" d="M2592.274,3325.811a.824.824,0,0,1-1.2-.868c.415-2.409.807-4.7,1.213-6.992.834-4.7,1.664-9.409,2.543-14.105a1.824,1.824,0,0,0-.714-1.842q-7.773-7.4-15.509-14.833h0a.8.8,0,0,1,.438-1.372c1.3-.193,2.484-.368,3.668-.527,5.667-.756,11.333-1.53,17.009-2.224a2.752,2.752,0,0,0,2.468-1.785c3-6.385,6.1-12.72,9.171-19.069h0a.784.784,0,0,1,1.406-.008c.017.033.033.066.048.1,3.088,6.392,6.191,12.776,9.236,19.187a2.373,2.373,0,0,0,2.059,1.537c7,.89,14,1.832,20.993,2.761l.023,0a.8.8,0,0,1,.447,1.374l-.009.009c-5.182,4.931-10.334,9.895-15.524,14.818a2.034,2.034,0,0,0-.69,2.1c1.322,7.2,3.9,22.468,3.893,22.463-.527-.274-13.8-7.343-20-10.706a2.121,2.121,0,0,0-2.315-.024c-6.2,3.369-12.43,6.679-18.652,10.006Zm3.468-5.957a.013.013,0,0,0,.019.013c.611-.305,1.041-.511,1.462-.734,4.538-2.4,9.087-4.785,13.6-7.233a2.229,2.229,0,0,1,2.441-.033c4.546,2.482,9.136,4.881,13.712,7.308.4.212.808.409,1.4.707a.013.013,0,0,0,.019-.013c-1.024-5.881-1.973-11.5-3.009-17.107a1.884,1.884,0,0,1,.642-1.973c3.822-3.636,7.6-7.315,11.413-10.963,0,0,1.009-.986,1.1-1.085a.006.006,0,0,0,0-.01c-.118-.019-1.137-.177-1.537-.231-4.958-.664-9.912-1.359-14.879-1.954a2.929,2.929,0,0,1-2.688-1.869c-2.125-4.623-4.4-9.176-6.629-13.751-.2-.414-.443-.809-.745-1.355a.013.013,0,0,0-.023,0c-.308.585-.539,1-.745,1.424-2.3,4.738-4.619,9.468-6.881,14.225a1.768,1.768,0,0,1-1.553,1.182c-3.06.368-6.111.806-9.164,1.223q-3.913.535-7.824,1.081l-.106.388a11.916,11.916,0,0,1,.991.785c3.8,3.655,7.588,7.33,11.408,10.969a1.735,1.735,0,0,1,.591,1.863c-.427,1.961-.713,3.954-1.059,5.933C2597.057,3312.315,2596.416,3315.989,2595.742,3319.853Z" transform="translate(-27.101 -28.643)" fill="#fff"></path>
                        <path id="Path_2850" data-name="Path 2850" d="M2679.99,3308.9l-13.1-7.13a1.889,1.889,0,0,1-.764-2.525h0a1.785,1.785,0,0,1,2.415-.74l8.533,4.555a.006.006,0,0,0,.009-.007c-.385-2.217-.718-4.165-1.064-6.11-.306-1.715-.6-3.431-.95-5.138a1.791,1.791,0,0,1,.629-1.876c2.654-2.442,5.255-4.943,8.078-7.614a.006.006,0,0,0,0-.011c-3.4-.485-6.544-1.071-9.711-1.331a3.883,3.883,0,0,1-3.8-2.767c-1.136-2.89-2.583-5.658-4.033-8.765a.006.006,0,0,0-.011,0c-1.513,2.942-2.939,5.717-4.377,8.514a1.88,1.88,0,0,1-2.454.849l-.03-.014a1.667,1.667,0,0,1-.806-2.243c2.3-4.739,4.589-9.456,6.961-14.343a.775.775,0,0,1,1.4.007l.005.012c2.169,4.605,4.347,9.206,6.484,13.826a1.743,1.743,0,0,0,1.541,1.193c5.1.649,10.183,1.374,15.273,2.078.138.019.277.041.419.065a.666.666,0,0,1,.352,1.135l-.008.008c-3.766,3.633-7.525,7.272-11.316,10.878a1.778,1.778,0,0,0-.628,1.85c.893,4.745,1.733,9.5,2.616,14.45A1.132,1.132,0,0,1,2679.99,3308.9Z" transform="translate(-52.521 -28.647)" fill="#fff"></path>
                        <path id="Path_2851" data-name="Path 2851" d="M2562.984,3303.2l8.362-4.471a1.888,1.888,0,0,1,2.533.753l.017.031a1.751,1.751,0,0,1-.7,2.373l-13.33,7.255a1.074,1.074,0,0,1-1.569-1.135c.568-3.152,1.116-6.18,1.66-9.208.323-1.8.588-3.618.984-5.4a1.629,1.629,0,0,0-.573-1.744c-3.754-3.579-7.479-7.19-11.225-10.779a7.282,7.282,0,0,0-.965-.7l.1-.44q3.679-.518,7.357-1.036c3.142-.437,6.28-.906,9.43-1.277a1.632,1.632,0,0,0,1.463-1.1c2.034-4.378,4.093-8.746,6.252-13.34a1.074,1.074,0,0,1,1.938-.014c2.251,4.627,4.439,9.126,6.652,13.673a1.771,1.771,0,0,1-.847,2.381l-.031.014a1.77,1.77,0,0,1-2.321-.8l-4.417-8.589a.006.006,0,0,0-.011,0c-.939,1.986-1.77,3.73-2.59,5.48-.74,1.576-1.417,3.186-2.237,4.718a2.137,2.137,0,0,1-1.34.983c-3.695.592-7.4,1.091-11.389,1.659a.006.006,0,0,0,0,.011l3.615,3.422c1.429,1.353,2.811,2.762,4.308,4.034a2.154,2.154,0,0,1,.741,2.345c-.613,3.156-1.176,6.323-1.748,9.487-.069.386-.077.784-.134,1.411A.006.006,0,0,0,2562.984,3303.2Z" transform="translate(-17.516 -28.837)" fill="#fff"></path>
                    </g>
                </svg>