<svg class="why-my" xmlns="http://www.w3.org/2000/svg" width="183.242" height="183.235" viewBox="0 0 183.242 183.235">
                    <g id="Group_165" data-name="Group 165" transform="translate(-4166.92 -3172.99)">
                        <circle  id="Ellipse_232" data-name="Ellipse 232" cx="5.292" cy="5.292" r="5.292" transform="translate(4210.215 3184.042)" fill="#fff"></circle>
                        <path id="Path_2839" data-name="Path 2839" d="M4350.162,3264.608a91.621,91.621,0,1,1-178.937-27.833c.129-.409.259-.819.4-1.221a5.321,5.321,0,0,1,10.023,3.4c-.109.314-.211.635-.307.955,0,.007-.007.014-.007.021a80.983,80.983,0,1,0,56.02-53.55c-.17.034-.334.082-.5.13-.068.021-.136.034-.2.048a5.3,5.3,0,0,1-2.579-10.262c.157-.041.313-.089.471-.13.007-.007.014-.014.021-.007a91.707,91.707,0,0,1,115.6,88.452Z" fill="#33b2c3"></path>
                        <path id="Path_2840" data-name="Path 2840" d="M4173.578,3264.789a.874.874,0,0,1,.054-.109c-.143.4-.273.813-.4,1.222A5.482,5.482,0,0,1,4173.578,3264.789Z" transform="translate(-2.004 -29.126)" fill="#33b2c3"></path>
                        <path id="Path_2841" data-name="Path 2841" d="M4188.367,3269.66a5.049,5.049,0,0,1-.307.955C4188.155,3270.294,4188.258,3269.974,4188.367,3269.66Z" transform="translate(-6.715 -30.708)" fill="#33b2c3"></path>
                        <circle id="Ellipse_233" data-name="Ellipse 233" cx="5.292" cy="5.292" r="5.292" transform="translate(4193.262 3196.709)" fill="#fff"></circle>
                        <circle id="Ellipse_234" data-name="Ellipse 234" cx="5.292" cy="5.292" r="5.292" transform="translate(4179.951 3212.998)" fill="#fff"></circle>
                        <path id="Path_2842" data-name="Path 2842" d="M4274.155,3300.418c.621-.594,1.163-1.094,1.686-1.616,9.829-9.825,19.753-19.558,29.437-29.525,4.155-4.276,9.912-3.971,13.182-.653,3.712,3.768,3.551,9.383-.47,13.407q-18.471,18.489-36.962,36.958c-4.363,4.357-9.414,4.373-13.752.05q-9-8.973-17.977-17.976c-3.933-3.946-4.162-9.652-.561-13.257,3.635-3.638,9.248-3.417,13.247.55,3.562,3.533,7.1,7.094,10.648,10.637C4273.1,3299.46,4273.6,3299.9,4274.155,3300.418Z" transform="translate(-25.179 -29.578)" fill="#fff"></path>
                    </g>
                </svg>